<svg width="863" height="160" viewBox="0 0 863 160" fill="none" xmlns="http://www.w3.org/2000/svg">
<path d="M97.752 126.28C86.9147 126.28 78.6373 122.653 72.92 115.4C67.288 108.147 64.472 98.4187 64.472 86.216V76.616C64.472 68.5947 65.6667 61.5973 68.056 55.624C70.5307 49.6507 74.1573 45 78.936 41.672C83.7147 38.344 89.56 36.68 96.472 36.68C102.872 36.68 108.163 37.96 112.344 40.52C116.525 42.9947 119.555 46.28 121.432 50.376C123.309 54.3867 123.907 58.7813 123.224 63.56L112.216 66.248C113.155 58.056 112.216 51.784 109.4 47.432C106.584 42.9947 102.275 40.776 96.472 40.776C89.9867 40.776 85.0373 43.08 81.624 47.688C78.296 52.296 76.632 59.8053 76.632 70.216V92.616C76.632 103.112 78.424 110.664 82.008 115.272C85.592 119.88 90.9253 122.184 98.008 122.184C100.824 122.184 103.512 121.715 106.072 120.776C108.632 119.752 110.808 118.045 112.6 115.656C114.392 113.267 115.501 109.939 115.928 105.672L123.864 107.72C121.987 114.547 118.659 119.368 113.88 122.184C109.187 124.915 103.811 126.28 97.752 126.28ZM193.56 122.184C199.277 122.184 203.885 120.776 207.384 117.96C210.968 115.144 212.76 111.005 212.76 105.544C212.76 101.192 211.437 97.5653 208.792 94.664C206.147 91.6773 201.539 89.288 194.968 87.496L186.136 84.936C179.651 83.144 174.701 80.1147 171.288 75.848C167.875 71.5813 166.168 66.376 166.168 60.232C166.168 56.136 167.107 52.296 168.984 48.712C170.947 45.128 173.891 42.2267 177.816 40.008C181.827 37.7893 186.904 36.68 193.048 36.68C199.875 36.68 205.379 37.96 209.56 40.52C213.741 42.9947 216.643 46.2373 218.264 50.248C219.885 54.2587 220.269 58.568 219.416 63.176L208.664 65.48C209.773 57.544 208.963 51.4427 206.232 47.176C203.587 42.9093 198.979 40.776 192.408 40.776C187.203 40.776 183.107 42.184 180.12 45C177.133 47.7307 175.64 51.7413 175.64 57.032C175.64 61.2133 176.835 64.7973 179.224 67.784C181.613 70.6853 185.837 72.9893 191.896 74.696L200.728 77.256C214.979 81.1813 222.104 89.5013 222.104 102.216C222.104 106.739 221.037 110.835 218.904 114.504C216.856 118.088 213.699 120.947 209.432 123.08C205.251 125.213 199.96 126.28 193.56 126.28C189.123 126.28 184.856 125.597 180.76 124.232C176.749 122.867 173.293 120.52 170.392 117.192C167.576 113.864 165.699 109.256 164.76 103.368L172.44 100.808C172.867 106.44 174.104 110.792 176.152 113.864C178.2 116.936 180.76 119.112 183.832 120.392C186.904 121.587 190.147 122.184 193.56 122.184ZM286.341 125.896C279.685 125.896 275.76 122.824 274.565 116.68C271.578 120.093 268.293 122.568 264.709 124.104C261.125 125.555 257.584 126.28 254.085 126.28C248.112 126.28 243.717 124.616 240.901 121.288C238.085 117.96 236.677 113.949 236.677 109.256C236.677 104.221 238.384 100.253 241.797 97.352C245.296 94.3653 251.312 92.872 259.845 92.872H274.309V82.504C274.309 75.6773 273.114 70.984 270.725 68.424C268.421 65.7787 265.264 64.456 261.253 64.456C258.693 64.456 256.389 64.968 254.341 65.992C252.293 67.016 250.8 68.8933 249.861 71.624C249.008 74.2693 248.922 78.152 249.605 83.272L239.493 81.736C239.066 77.7253 239.578 74.1413 241.029 70.984C242.565 67.7413 245.04 65.1813 248.453 63.304C251.952 61.3413 256.304 60.36 261.509 60.36C267.738 60.36 272.517 61.4267 275.845 63.56C279.173 65.608 281.477 68.296 282.757 71.624C284.122 74.952 284.805 78.5787 284.805 82.504V111.304C284.805 115.656 285.274 118.387 286.213 119.496C287.237 120.605 288.346 121.16 289.541 121.16C290.309 121.16 291.12 120.989 291.973 120.648C292.826 120.221 293.765 119.581 294.789 118.728L297.093 121.928C295.813 123.037 294.277 123.976 292.485 124.744C290.778 125.512 288.73 125.896 286.341 125.896ZM257.669 120.904C260.058 120.904 262.618 120.264 265.349 118.984C268.165 117.619 271.152 114.931 274.309 110.92V96.968H261.253C256.474 96.968 252.976 97.9493 250.757 99.912C248.624 101.789 247.557 104.733 247.557 108.744C247.557 112.584 248.368 115.571 249.989 117.704C251.696 119.837 254.256 120.904 257.669 120.904ZM332.682 64.456C327.989 64.456 324.319 66.4187 321.674 70.344C319.114 74.184 317.834 80.5413 317.834 89.416V97.096C317.834 106.056 319.114 112.499 321.674 116.424C324.319 120.264 328.586 122.184 334.474 122.184C338.485 122.184 341.727 121.16 344.202 119.112C346.677 117.064 348.341 113.523 349.194 108.488L355.978 110.408C354.442 116.211 351.626 120.307 347.53 122.696C343.434 125.085 338.869 126.28 333.834 126.28C324.618 126.28 317.706 123.421 313.098 117.704C308.575 111.901 306.314 104.179 306.314 94.536V91.976C306.314 82.4187 308.575 74.7813 313.098 69.064C317.621 63.2613 324.149 60.36 332.682 60.36C338.143 60.36 342.666 61.4267 346.25 63.56C349.919 65.6933 352.522 68.5947 354.058 72.264C355.594 75.848 356.021 79.816 355.338 84.168L345.226 85.704C346.165 78.8773 345.525 73.6293 343.306 69.96C341.173 66.2907 337.631 64.456 332.682 64.456ZM437.636 121.672V125H407.428V121.672L414.468 120.904C415.833 120.733 416.644 120.392 416.9 119.88C417.156 119.368 417.284 117.619 417.284 114.632V82.76C417.284 76.4453 416.26 72.008 414.212 69.448C412.164 66.8027 409.263 65.48 405.508 65.48C402.607 65.48 399.449 66.3333 396.036 68.04C392.623 69.7467 389.423 73.1173 386.436 78.152V114.632C386.436 117.619 386.564 119.368 386.82 119.88C387.076 120.392 387.887 120.733 389.252 120.904L396.292 121.672V125H366.084V121.672L373.124 120.904C374.489 120.733 375.3 120.392 375.556 119.88C375.812 119.368 375.94 117.619 375.94 114.632V40.648C375.94 37.6613 375.812 35.912 375.556 35.4C375.3 34.888 374.489 34.5467 373.124 34.376L366.084 33.736V30.28H386.436V71.368C389.423 67.528 392.836 64.7547 396.676 63.048C400.516 61.256 404.313 60.36 408.068 60.36C414.383 60.36 419.247 62.3227 422.66 66.248C426.073 70.088 427.78 75.5493 427.78 82.632V114.632C427.78 117.619 427.908 119.368 428.164 119.88C428.42 120.392 429.231 120.733 430.596 120.904L437.636 121.672ZM472.113 99.144L464.305 97.224C453.638 94.4933 448.305 88.3493 448.305 78.792C448.305 75.6347 449.03 72.648 450.481 69.832C451.932 67.016 454.236 64.7547 457.393 63.048C460.636 61.256 464.774 60.36 469.809 60.36C475.441 60.36 479.964 61.2987 483.377 63.176C486.79 65.0533 489.18 67.4853 490.545 70.472C491.91 73.4587 492.337 76.7013 491.825 80.2L481.841 81.992C482.865 76.4453 482.268 72.136 480.049 69.064C477.916 65.992 474.374 64.456 469.425 64.456C465.585 64.456 462.513 65.4373 460.209 67.4C457.905 69.2773 456.753 72.0507 456.753 75.72C456.753 78.4507 457.606 80.8827 459.313 83.016C461.02 85.064 463.878 86.6 467.889 87.624L475.953 89.544C481.585 90.9093 485.937 93.0853 489.009 96.072C492.166 99.0587 493.745 102.984 493.745 107.848C493.745 113.309 491.74 117.747 487.729 121.16C483.804 124.573 478.172 126.28 470.833 126.28C467.334 126.28 463.921 125.768 460.593 124.744C457.35 123.635 454.492 121.928 452.017 119.624C449.628 117.235 447.878 114.163 446.769 110.408L453.937 107.848C454.876 113.224 456.924 116.979 460.081 119.112C463.238 121.245 466.865 122.312 470.961 122.312C473.35 122.312 475.612 121.928 477.745 121.16C479.964 120.392 481.756 119.197 483.121 117.576C484.486 115.869 485.169 113.693 485.169 111.048C485.169 108.317 484.23 105.971 482.353 104.008C480.476 102.045 477.062 100.424 472.113 99.144ZM560.258 110.408C558.722 116.211 555.821 120.307 551.554 122.696C547.373 125.085 542.722 126.28 537.602 126.28C528.13 126.28 521.047 123.421 516.354 117.704C511.661 111.901 509.314 104.179 509.314 94.536V91.976C509.314 82.4187 511.575 74.7813 516.098 69.064C520.621 63.2613 527.191 60.36 535.81 60.36C540.418 60.36 544.599 61.2987 548.354 63.176C552.194 65.0533 555.223 67.8267 557.442 71.496C559.746 75.1653 560.898 79.7307 560.898 85.192C560.898 87.752 560.642 90.44 560.13 93.256H520.834V97.096C520.834 106.056 522.199 112.499 524.93 116.424C527.746 120.264 532.269 122.184 538.498 122.184C542.423 122.184 545.666 121.16 548.226 119.112C550.871 117.064 552.621 113.523 553.474 108.488L560.258 110.408ZM535.81 64.456C530.775 64.456 527.021 66.376 524.546 70.216C522.071 74.056 520.834 80.3707 520.834 89.16H549.634V88.776C549.805 87.6667 549.933 86.6 550.018 85.576C550.103 84.4667 550.146 83.4853 550.146 82.632C550.146 76.232 548.823 71.624 546.178 68.808C543.533 65.9067 540.077 64.456 535.81 64.456ZM644.532 121.672V125H614.324V121.672L621.364 120.904C622.729 120.733 623.54 120.392 623.796 119.88C624.052 119.368 624.18 117.619 624.18 114.632V82.76C624.18 76.4453 623.156 72.008 621.108 69.448C619.06 66.8027 616.116 65.48 612.276 65.48C609.46 65.48 606.345 66.3333 602.932 68.04C599.519 69.7467 596.319 73.0747 593.332 78.024V114.632C593.332 117.619 593.46 119.368 593.716 119.88C593.972 120.392 594.783 120.733 596.148 120.904L603.188 121.672V125H572.98V121.672L580.02 120.904C581.385 120.733 582.196 120.392 582.452 119.88C582.708 119.368 582.836 117.619 582.836 114.632V72.008C582.836 69.0213 582.708 67.272 582.452 66.76C582.196 66.248 581.385 65.9067 580.02 65.736L572.98 65.096V61.64H592.692V72.008C595.764 67.912 599.22 64.968 603.06 63.176C606.985 61.2987 610.911 60.36 614.836 60.36C621.151 60.36 626.015 62.3227 629.428 66.248C632.927 70.088 634.676 75.5493 634.676 82.632V114.632C634.676 117.619 634.804 119.368 635.06 119.88C635.316 120.392 636.127 120.733 637.492 120.904L644.532 121.672ZM740.5 85.064C740.5 99.144 737.684 109.555 732.052 116.296C726.505 122.952 719.124 126.28 709.908 126.28C704.105 126.28 698.943 124.829 694.42 121.928C689.983 119.027 686.783 113.821 684.82 106.312L692.756 104.008C693.439 108.701 694.591 112.371 696.212 115.016C697.919 117.661 699.924 119.539 702.228 120.648C704.617 121.672 707.092 122.184 709.652 122.184C712.895 122.184 715.924 121.416 718.74 119.88C721.641 118.259 723.945 115.315 725.652 111.048C727.444 106.781 728.34 100.637 728.34 92.616V82.504C725.865 85.576 722.964 87.8373 719.636 89.288C716.393 90.7387 712.895 91.464 709.14 91.464C704.105 91.464 699.668 90.3973 695.828 88.264C692.073 86.1307 689.129 83.1867 686.996 79.432C684.948 75.592 683.924 71.112 683.924 65.992V62.664C683.924 57.3733 685.076 52.808 687.38 48.968C689.684 45.0427 692.884 42.0133 696.98 39.88C701.076 37.7467 705.855 36.68 711.316 36.68C720.703 36.68 727.913 40.0933 732.948 46.92C737.983 53.7467 740.5 63.7733 740.5 77V85.064ZM695.828 65.608C695.828 72.0933 697.065 77.256 699.54 81.096C702.015 84.8507 705.855 86.728 711.06 86.728C714.217 86.728 717.332 85.9173 720.404 84.296C723.561 82.6747 726.207 79.9013 728.34 75.976V69.448C728.34 62.1947 727.657 56.4773 726.292 52.296C725.012 48.1147 723.092 45.1707 720.532 43.464C717.972 41.672 714.815 40.776 711.06 40.776C706.452 40.776 702.74 42.3973 699.924 45.64C697.193 48.7973 695.828 54.3013 695.828 62.152V65.608Z" fill="#FFB703"/>
<ellipse cx="798.329" cy="85.3728" rx="47.3289" ry="46.3728" fill="#FFB703"/>
<path d="M788.965 65.0933C788.965 68.415 786.574 71.1077 783.624 71.1077C780.674 71.1077 778.283 68.415 778.283 65.0933C778.283 61.7716 780.674 59.0789 783.624 59.0789C786.574 59.0789 788.965 61.7716 788.965 65.0933Z" fill="#021B3A"/>
<path d="M804.544 65.0933C804.544 68.415 802.153 71.1077 799.203 71.1077C796.253 71.1077 793.862 68.415 793.862 65.0933C793.862 61.7716 796.253 59.0789 799.203 59.0789C802.153 59.0789 804.544 61.7716 804.544 65.0933Z" fill="#021B3A"/>
<ellipse cx="786.855" cy="99.2367" rx="6.21491" ry="6.69298" fill="#021B3A"/>
<path d="M0 50.6343H22.6134C43.0351 54.1211 52.7937 67.5651 51.9496 89.8209C51.1451 111.034 42.3915 123.499 22.6134 125H0V50.6343Z" fill="#FFB703"/>
<path d="M0 8.69897H20.2662C29.6372 12.3854 38.5637 18.7894 31.6538 42.2474H0V8.69897Z" fill="#FFB703"/>
<rect y="45.043" width="31.3118" height="2.7957" fill="#021B3A"/>
</svg>
